<svg xmlns="http://www.w3.org/2000/svg" xmlns:xlink="http://www.w3.org/1999/xlink" contentStyleType="text/css" data-diagram-type="CLASS" height="1364px" preserveAspectRatio="none" style="width:1812px;height:1364px;background:#FFFFFF;" version="1.1" viewBox="0 0 1812 1364" width="1812px" zoomAndPan="magnify"><?plantuml 1.2026.3beta6?><defs/><g><!--cluster carcassonne--><g class="cluster" data-qualified-name="carcassonne" data-source-line="6" id="ent0003"><polygon fill="none" points="484,279.49,588.1094,279.49,595.1094,301.7869,1026,301.7869,1026,1349.33,484,1349.33,484,279.49" style="stroke:#000000;stroke-width:1.5;"/><line style="stroke:#000000;stroke-width:1.5;" x1="484" x2="595.1094" y1="301.7869" y2="301.7869"/><text fill="#000000" font-family="sans-serif" font-size="14" font-weight="700" lengthAdjust="spacing" textLength="98.1094" x="488" y="294.4851">carcassonne</text></g><!--cluster gui--><g class="cluster" data-qualified-name="gui" data-source-line="66" id="ent0014"><polygon fill="none" points="917,96.3,947.7871,96.3,954.7871,118.5969,1787,118.5969,1787,230.49,917,230.49,917,96.3" style="stroke:#000000;stroke-width:1.5;"/><line style="stroke:#000000;stroke-width:1.5;" x1="917" x2="954.7871" y1="118.5969" y2="118.5969"/><text fill="#000000" font-family="sans-serif" font-size="14" font-weight="700" lengthAdjust="spacing" textLength="24.7871" x="921" y="111.2951">gui</text></g><!--cluster cli--><g class="cluster" data-qualified-name="cli" data-source-line="72" id="ent0016"><polygon fill="none" points="16,96.3,39.8965,96.3,46.8965,118.5969,886,118.5969,886,230.49,16,230.49,16,96.3" style="stroke:#000000;stroke-width:1.5;"/><line style="stroke:#000000;stroke-width:1.5;" x1="16" x2="46.8965" y1="118.5969" y2="118.5969"/><text fill="#000000" font-family="sans-serif" font-size="14" font-weight="700" lengthAdjust="spacing" textLength="17.8965" x="20" y="111.2951">cli</text></g><!--cluster ai--><g class="cluster" data-qualified-name="ai" data-source-line="78" id="ent0018"><polygon fill="none" points="1050,710.35,1070.2461,710.35,1077.2461,732.6469,1318,732.6469,1318,811.94,1050,811.94,1050,710.35" style="stroke:#000000;stroke-width:1.5;"/><line style="stroke:#000000;stroke-width:1.5;" x1="1050" x2="1077.2461" y1="732.6469" y2="732.6469"/><text fill="#000000" font-family="sans-serif" font-size="14" font-weight="700" lengthAdjust="spacing" textLength="14.2461" x="1054" y="725.3451">ai</text></g><!--class Vector2D--><g class="entity" data-qualified-name="carcassonne.Vector2D" data-source-line="6" id="ent0002"><rect fill="#F1F1F1" height="66.8906" rx="2.5" ry="2.5" style="stroke:#181818;stroke-width:0.5;" width="79.2061" x="676.4" y="1266.44"/><text fill="#000000" font-family="sans-serif" font-size="14" font-weight="700" lengthAdjust="spacing" textLength="73.2061" x="679.4" y="1284.4351">Vector2D</text><line style="stroke:#181818;stroke-width:0.5;" x1="677.4" x2="754.6061" y1="1292.7369" y2="1292.7369"/><text fill="#000000" font-family="sans-serif" font-size="14" lengthAdjust="spacing" textLength="45.2061" x="682.4" y="1309.732">-x : int</text><text fill="#000000" font-family="sans-serif" font-size="14" lengthAdjust="spacing" textLength="45.2061" x="682.4" y="1326.0289">-y : int</text></g><!--class Meeple--><g class="entity" data-qualified-name="carcassonne.Meeple" data-source-line="11" id="ent0004"><rect fill="#F1F1F1" height="26.2969" rx="2.5" ry="2.5" style="stroke:#181818;stroke-width:0.5;" width="63.2373" x="541.38" y="1099.12"/><text fill="#000000" font-family="sans-serif" font-size="14" font-weight="700" lengthAdjust="spacing" textLength="57.2373" x="544.38" y="1117.1151">Meeple</text></g><!--class Player--><g class="entity" data-qualified-name="carcassonne.Player" data-source-line="15" id="ent0005"><rect fill="#F1F1F1" height="83.1875" rx="2.5" ry="2.5" style="stroke:#181818;stroke-width:0.5;" width="108.2773" x="499.86" y="729.05"/><text fill="#000000" font-family="sans-serif" font-size="14" font-weight="700" lengthAdjust="spacing" textLength="50.0322" x="528.9826" y="747.0451">Player</text><line style="stroke:#181818;stroke-width:0.5;" x1="500.86" x2="607.1373" y1="755.3469" y2="755.3469"/><text fill="#000000" font-family="sans-serif" font-size="14" lengthAdjust="spacing" textLength="49.6973" x="505.86" y="772.342">-id : int</text><text fill="#000000" font-family="sans-serif" font-size="14" lengthAdjust="spacing" textLength="96.2773" x="505.86" y="788.6389">-name : char*</text><text fill="#000000" font-family="sans-serif" font-size="14" lengthAdjust="spacing" textLength="74.8467" x="505.86" y="804.9357">-score : int</text></g><!--class Type--><g class="entity" data-qualified-name="carcassonne.Type" data-source-line="21" id="ent0006"><rect fill="#F1F1F1" height="162.3438" rx="2.5" ry="2.5" style="stroke:#181818;stroke-width:0.5;" width="143.9063" x="864.05" y="1031.1"/><text fill="#000000" font-family="sans-serif" font-size="12" font-style="italic" lengthAdjust="spacing" textLength="48.9668" x="911.5197" y="1047.2387">&#171;enum&#187;</text><text fill="#000000" font-family="sans-serif" font-size="14" font-weight="700" lengthAdjust="spacing" textLength="38.1924" x="916.9069" y="1063.0639">Type</text><line style="stroke:#181818;stroke-width:0.5;" x1="865.05" x2="1006.9563" y1="1071.3656" y2="1071.3656"/><text fill="#000000" font-family="sans-serif" font-size="14" lengthAdjust="spacing" textLength="58.5771" x="870.05" y="1088.3607">VILLAGE</text><text fill="#000000" font-family="sans-serif" font-size="14" lengthAdjust="spacing" textLength="43.8867" x="870.05" y="1104.6576">TOWN</text><text fill="#000000" font-family="sans-serif" font-size="14" lengthAdjust="spacing" textLength="131.9063" x="870.05" y="1120.9545">TOWNWITHSHIELD</text><text fill="#000000" font-family="sans-serif" font-size="14" lengthAdjust="spacing" textLength="46.1836" x="870.05" y="1137.2514">ABBEY</text><text fill="#000000" font-family="sans-serif" font-size="14" lengthAdjust="spacing" textLength="41.1045" x="870.05" y="1153.5482">ROAD</text><text fill="#000000" font-family="sans-serif" font-size="14" lengthAdjust="spacing" textLength="39.6074" x="870.05" y="1169.8451">FIELD</text><text fill="#000000" font-family="sans-serif" font-size="14" lengthAdjust="spacing" textLength="39.0195" x="870.05" y="1186.142">WALL</text></g><!--class PlayerType--><g class="entity" data-qualified-name="carcassonne.PlayerType" data-source-line="31" id="ent0007"><rect fill="#F1F1F1" height="80.8594" rx="2.5" ry="2.5" style="stroke:#181818;stroke-width:0.5;" width="94.2246" x="499.89" y="889.24"/><text fill="#000000" font-family="sans-serif" font-size="12" font-style="italic" lengthAdjust="spacing" textLength="48.9668" x="522.5189" y="905.3787">&#171;enum&#187;</text><text fill="#000000" font-family="sans-serif" font-size="14" font-weight="700" lengthAdjust="spacing" textLength="88.2246" x="502.89" y="921.2039">PlayerType</text><line style="stroke:#181818;stroke-width:0.5;" x1="500.89" x2="593.1146" y1="929.5056" y2="929.5056"/><text fill="#000000" font-family="sans-serif" font-size="14" lengthAdjust="spacing" textLength="13.7061" x="505.89" y="946.5007">IA</text><text fill="#000000" font-family="sans-serif" font-size="14" lengthAdjust="spacing" textLength="52.9033" x="505.89" y="962.7976">HUMAN</text></g><!--class Tile--><g class="entity" data-qualified-name="carcassonne.Tile" data-source-line="36" id="ent0008"><rect fill="#F1F1F1" height="66.8906" rx="2.5" ry="2.5" style="stroke:#181818;stroke-width:0.5;" width="109.665" x="771.17" y="896.22"/><text fill="#000000" font-family="sans-serif" font-size="14" font-weight="700" lengthAdjust="spacing" textLength="28.6426" x="811.6812" y="914.2151">Tile</text><line style="stroke:#181818;stroke-width:0.5;" x1="772.17" x2="879.835" y1="922.5169" y2="922.5169"/><text fill="#000000" font-family="sans-serif" font-size="14" lengthAdjust="spacing" textLength="68.1953" x="777.17" y="939.512">-type : int</text><text fill="#000000" font-family="sans-serif" font-size="14" lengthAdjust="spacing" textLength="97.665" x="777.17" y="955.8089">-group_id : int</text></g><!--class Group--><g class="entity" data-qualified-name="carcassonne.Group" data-source-line="41" id="ent0009"><rect fill="#F1F1F1" height="50.5938" rx="2.5" ry="2.5" style="stroke:#181818;stroke-width:0.5;" width="109.665" x="900.17" y="745.35"/><text fill="#000000" font-family="sans-serif" font-size="14" font-weight="700" lengthAdjust="spacing" textLength="48.002" x="931.0015" y="763.3451">Group</text><line style="stroke:#181818;stroke-width:0.5;" x1="901.17" x2="1008.835" y1="771.6469" y2="771.6469"/><text fill="#000000" font-family="sans-serif" font-size="14" lengthAdjust="spacing" textLength="97.665" x="906.17" y="788.642">-group_id : int</text></g><!--class Game--><g class="entity" data-qualified-name="carcassonne.Game" data-source-line="45" id="ent0010"><rect fill="#F1F1F1" height="205.2656" rx="2.5" ry="2.5" style="stroke:#181818;stroke-width:0.5;" width="230.8936" x="679.55" y="442.08"/><text fill="#000000" font-family="sans-serif" font-size="14" font-weight="700" lengthAdjust="spacing" textLength="45.0215" x="772.486" y="460.0751">Game</text><line style="stroke:#181818;stroke-width:0.5;" x1="680.55" x2="909.4436" y1="468.3769" y2="468.3769"/><text fill="#000000" font-family="sans-serif" font-size="14" lengthAdjust="spacing" textLength="158.7646" x="685.55" y="485.372">-current_player_id : int</text><text fill="#000000" font-family="sans-serif" font-size="14" lengthAdjust="spacing" textLength="110.708" x="685.55" y="501.6689">-max_turns : int</text><text fill="#000000" font-family="sans-serif" font-size="14" lengthAdjust="spacing" textLength="119.7041" x="685.55" y="517.9657">-turns_count : int</text><text fill="#000000" font-family="sans-serif" font-size="14" lengthAdjust="spacing" textLength="183.2646" x="685.55" y="534.2626">-human_player_count : int</text><text fill="#000000" font-family="sans-serif" font-size="14" lengthAdjust="spacing" textLength="166.4414" x="685.55" y="550.5595">-total_player_count : int</text><text fill="#000000" font-family="sans-serif" font-size="14" lengthAdjust="spacing" textLength="82.0244" x="685.55" y="566.8564">-map : int**</text><line style="stroke:#181818;stroke-width:0.5;" x1="680.55" x2="909.4436" y1="574.1581" y2="574.1581"/><text fill="#000000" font-family="sans-serif" font-size="14" lengthAdjust="spacing" textLength="97.583" x="685.55" y="591.1532">+make_turn()</text><text fill="#000000" font-family="sans-serif" font-size="14" lengthAdjust="spacing" textLength="89.2021" x="685.55" y="607.4501">+place_tile()</text><text fill="#000000" font-family="sans-serif" font-size="14" lengthAdjust="spacing" textLength="119.5742" x="685.55" y="623.747">+place_meeple()</text><text fill="#000000" font-family="sans-serif" font-size="14" lengthAdjust="spacing" textLength="218.8936" x="685.55" y="640.0439">+get_current_player() : Player*</text></g><!--class Engine--><g class="entity" data-qualified-name="carcassonne.Engine" data-source-line="58" id="ent0011"><rect fill="#F1F1F1" height="50.5938" rx="2.5" ry="2.5" style="stroke:#181818;stroke-width:0.5;" width="224.0781" x="759.96" y="314.49"/><text fill="#000000" font-family="sans-serif" font-size="14" font-weight="700" lengthAdjust="spacing" textLength="53.8125" x="845.0928" y="332.4851">Engine</text><line style="stroke:#181818;stroke-width:0.5;" x1="760.96" x2="983.0381" y1="340.7869" y2="340.7869"/><text fill="#000000" font-family="sans-serif" font-size="14" lengthAdjust="spacing" textLength="212.0781" x="765.96" y="357.782">+apply_action(action : Action)</text></g><!--class Action--><g class="entity" data-qualified-name="carcassonne.Action" data-source-line="62" id="ent0012"><rect fill="#F1F1F1" height="50.5938" rx="2.5" ry="2.5" style="stroke:#181818;stroke-width:0.5;" width="152.4443" x="639.78" y="1086.97"/><text fill="#000000" font-family="sans-serif" font-size="14" font-weight="700" lengthAdjust="spacing" textLength="50.21" x="690.8972" y="1104.9651">Action</text><line style="stroke:#181818;stroke-width:0.5;" x1="640.78" x2="791.2243" y1="1113.2669" y2="1113.2669"/><text fill="#000000" font-family="sans-serif" font-size="14" lengthAdjust="spacing" textLength="140.4443" x="645.78" y="1130.262">place_meeple : bool</text></g><!--class AIState--><g class="entity" data-qualified-name="carcassonne.AIState" data-source-line="82" id="ent0019"><rect fill="#F1F1F1" height="26.2969" rx="2.5" ry="2.5" style="stroke:#181818;stroke-width:0.5;" width="64.4541" x="930.77" y="916.52"/><text fill="#000000" font-family="sans-serif" font-size="14" font-weight="700" lengthAdjust="spacing" textLength="58.4541" x="933.77" y="934.5151">AIState</text></g><!--class Deck--><g class="entity" data-qualified-name="carcassonne.Deck" data-source-line="84" id="ent0020"><rect fill="#F1F1F1" height="50.5938" rx="2.5" ry="2.5" style="stroke:#181818;stroke-width:0.5;" width="82.3281" x="642.84" y="745.35"/><text fill="#000000" font-family="sans-serif" font-size="14" font-weight="700" lengthAdjust="spacing" textLength="38.7256" x="664.6413" y="763.3451">Deck</text><line style="stroke:#181818;stroke-width:0.5;" x1="643.84" x2="724.1681" y1="771.6469" y2="771.6469"/><text fill="#000000" font-family="sans-serif" font-size="14" lengthAdjust="spacing" textLength="70.3281" x="648.84" y="788.642">-seed : int</text></g><!--class SDLFrontEnd--><g class="entity" data-qualified-name="gui.SDLFrontEnd" data-source-line="66" id="ent0013"><rect fill="#F1F1F1" height="83.1875" rx="2.5" ry="2.5" style="stroke:#181818;stroke-width:0.5;" width="837.4736" x="933.26" y="131.3"/><text fill="#000000" font-family="sans-serif" font-size="14" font-weight="700" lengthAdjust="spacing" textLength="102.9219" x="1300.5359" y="149.2951">SDLFrontEnd</text><line style="stroke:#181818;stroke-width:0.5;" x1="934.26" x2="1769.7336" y1="157.5969" y2="157.5969"/><text fill="#000000" font-family="sans-serif" font-size="14" lengthAdjust="spacing" textLength="825.4736" x="939.26" y="174.592">create_game(max_turns : int, turns_count : int, seed : int, human_player_count : int, total_player_count : int) : Game*</text><text fill="#000000" font-family="sans-serif" font-size="14" lengthAdjust="spacing" textLength="235.5049" x="939.26" y="190.8889">start_game(game : Game*) : void</text><text fill="#000000" font-family="sans-serif" font-size="14" lengthAdjust="spacing" textLength="255.7871" x="939.26" y="207.1857">destroy_game(game : Game*) : void</text></g><!--class CLIFrontEnd--><g class="entity" data-qualified-name="cli.CLIFrontEnd" data-source-line="72" id="ent0015"><rect fill="#F1F1F1" height="83.1875" rx="2.5" ry="2.5" style="stroke:#181818;stroke-width:0.5;" width="837.4736" x="32.26" y="131.3"/><text fill="#000000" font-family="sans-serif" font-size="14" font-weight="700" lengthAdjust="spacing" textLength="96.7012" x="402.6462" y="149.2951">CLIFrontEnd</text><line style="stroke:#181818;stroke-width:0.5;" x1="33.26" x2="868.7336" y1="157.5969" y2="157.5969"/><text fill="#000000" font-family="sans-serif" font-size="14" lengthAdjust="spacing" textLength="825.4736" x="38.26" y="174.592">create_game(max_turns : int, turns_count : int, seed : int, human_player_count : int, total_player_count : int) : Game*</text><text fill="#000000" font-family="sans-serif" font-size="14" lengthAdjust="spacing" textLength="235.5049" x="38.26" y="190.8889">start_game(game : Game*) : void</text><text fill="#000000" font-family="sans-serif" font-size="14" lengthAdjust="spacing" textLength="255.7871" x="38.26" y="207.1857">destroy_game(game : Game*) : void</text></g><!--class AIEngine--><g class="entity" data-qualified-name="ai.AIEngine" data-source-line="78" id="ent0017"><rect fill="#F1F1F1" height="50.5938" rx="2.5" ry="2.5" style="stroke:#181818;stroke-width:0.5;" width="235.207" x="1066.4" y="745.35"/><text fill="#000000" font-family="sans-serif" font-size="14" font-weight="700" lengthAdjust="spacing" textLength="69.8564" x="1149.0753" y="763.3451">AIEngine</text><line style="stroke:#181818;stroke-width:0.5;" x1="1067.4" x2="1300.607" y1="771.6469" y2="771.6469"/><text fill="#000000" font-family="sans-serif" font-size="14" lengthAdjust="spacing" textLength="223.207" x="1072.4" y="788.642">+makeDecision(game : Game*)</text></g><!--class MainCLI--><g class="entity" data-qualified-name="MainCLI" data-source-line="88" id="ent0021"><rect fill="#F1F1F1" height="26.2969" rx="2.5" ry="2.5" style="stroke:#181818;stroke-width:0.5;" width="68.5488" x="416.73" y="7"/><text fill="#000000" font-family="sans-serif" font-size="14" font-weight="700" lengthAdjust="spacing" textLength="62.5488" x="419.73" y="24.9951">MainCLI</text></g><!--class MainSDL--><g class="entity" data-qualified-name="MainSDL" data-source-line="89" id="ent0022"><rect fill="#F1F1F1" height="26.2969" rx="2.5" ry="2.5" style="stroke:#181818;stroke-width:0.5;" width="74.7695" x="1314.62" y="7"/><text fill="#000000" font-family="sans-serif" font-size="14" font-weight="700" lengthAdjust="spacing" textLength="68.7695" x="1317.62" y="24.9951">MainSDL</text></g><!--link Tile to Vector2D--><g class="link" data-entity-1="ent0008" data-entity-2="ent0002" data-link-type="aggregation" data-source-line="91" id="lnk23"><path codeLine="91" d="M831.9909,975.2426 C837.8409,1026.4926 842.23,1116.01 810,1193.44 C798.31,1221.51 780.2465,1243.0043 760.2365,1261.9543" fill="none" id="Tile-Vector2D" style="stroke:#181818;stroke-width:1;"/><polygon fill="none" points="830.63,963.32,827.3363,969.7349,831.9909,975.2426,835.2847,968.8277,830.63,963.32" style="stroke:#181818;stroke-width:1;"/><polygon fill="#181818" points="755.88,1266.08,765.1651,1262.7958,759.5104,1262.6419,759.6642,1256.9872,755.88,1266.08" style="stroke:#181818;stroke-width:1;"/><text fill="#000000" font-family="sans-serif" font-size="13" lengthAdjust="spacing" textLength="8.271" x="787.4961" y="1242.8233">1</text><text fill="#000000" font-family="sans-serif" font-size="13" lengthAdjust="spacing" textLength="56.1831" x="767.6724" y="1257.9562">-position</text></g><!--link Meeple to Vector2D--><g class="link" data-entity-1="ent0004" data-entity-2="ent0002" data-link-type="aggregation" data-source-line="92" id="lnk24"><path codeLine="92" d="M585.4395,1136.1765 C594.3095,1152.3165 605.09,1170.64 622,1193.44 C641,1219.04 660.8304,1241.4583 679.8004,1261.6383" fill="none" id="Meeple-Vector2D" style="stroke:#181818;stroke-width:1;"/><polygon fill="none" points="579.66,1125.66,579.0443,1132.8448,585.4395,1136.1765,586.0553,1128.9918,579.66,1125.66" style="stroke:#181818;stroke-width:1;"/><polygon fill="#181818" points="683.91,1266.01,680.6601,1256.7128,680.4854,1262.3669,674.8312,1262.1922,683.91,1266.01" style="stroke:#181818;stroke-width:1;"/><text fill="#000000" font-family="sans-serif" font-size="13" lengthAdjust="spacing" textLength="8.271" x="637.9951" y="1240.3086">1</text><text fill="#000000" font-family="sans-serif" font-size="13" lengthAdjust="spacing" textLength="56.1831" x="618.1714" y="1255.4414">-position</text></g><!--link Player to Meeple--><g class="link" data-entity-1="ent0005" data-entity-2="ent0004" data-link-type="aggregation" data-source-line="94" id="lnk25"><path codeLine="94" d="M603.4224,822.1777 C610.3324,831.2277 609.19,831.73 613,842.24 C647.23,936.56 599.582,1054.2111 581.552,1093.3211" fill="none" id="Player-Meeple" style="stroke:#181818;stroke-width:1;"/><polygon fill="none" points="596.14,812.64,596.602,819.8363,603.4224,822.1777,602.9604,814.9814,596.14,812.64" style="stroke:#181818;stroke-width:1;"/><polygon fill="#181818" points="579.04,1098.77,586.4405,1092.2714,581.1333,1094.2293,579.1754,1088.9221,579.04,1098.77" style="stroke:#181818;stroke-width:1;"/><polygon fill="#000000" points="628.598,934.7202,632.2546,925.9407,626.3958,925.4681,628.598,934.7202" style="stroke:#000000;stroke-width:1;"/><text fill="#000000" font-family="sans-serif" font-size="13" lengthAdjust="spacing" textLength="53.5869" x="638" y="934.2369">Poss&#232;de</text><text fill="#000000" font-family="sans-serif" font-size="13" lengthAdjust="spacing" textLength="8.271" x="623.7843" y="832.3836">1</text><text fill="#000000" font-family="sans-serif" font-size="13" lengthAdjust="spacing" textLength="45.5571" x="609.2736" y="847.5164">-player</text><text fill="#000000" font-family="sans-serif" font-size="13" lengthAdjust="spacing" textLength="8.271" x="525.2847" y="1072.8591">8</text><text fill="#000000" font-family="sans-serif" font-size="13" lengthAdjust="spacing" textLength="72.9854" x="497.0599" y="1087.9919">-meeples**</text></g><!--link Player to PlayerType--><g class="link" data-entity-1="ent0005" data-entity-2="ent0007" data-link-type="aggregation" data-source-line="95" id="lnk26"><path codeLine="95" d="M551.645,824.4781 C550.595,848.0081 550.0869,859.4859 549.0469,882.8459" fill="none" id="Player-PlayerType" style="stroke:#181818;stroke-width:1;"/><polygon fill="none" points="552.18,812.49,547.9165,818.3057,551.645,824.4781,555.9085,818.6624,552.18,812.49" style="stroke:#181818;stroke-width:1;"/><polygon fill="#181818" points="548.78,888.84,553.1763,880.0268,549.0024,883.8449,545.1842,879.671,548.78,888.84" style="stroke:#181818;stroke-width:1;"/><polygon fill="#000000" points="554.7777,855.8015,558.1159,846.896,552.2439,846.6346,554.7777,855.8015" style="stroke:#000000;stroke-width:1;"/><text fill="#000000" font-family="sans-serif" font-size="13" lengthAdjust="spacing" textLength="40.6948" x="564" y="855.3069">Est un</text><text fill="#000000" font-family="sans-serif" font-size="13" lengthAdjust="spacing" textLength="8.271" x="522.2194" y="863.0745">1</text><text fill="#000000" font-family="sans-serif" font-size="13" lengthAdjust="spacing" textLength="33.7314" x="513.6215" y="878.2073">-type</text></g><!--link Game to Player--><g class="link" data-entity-1="ent0010" data-entity-2="ent0005" data-link-type="composition" data-source-line="97" id="lnk27"><path codeLine="97" d="M670.2738,653.8923 C658.6238,664.4123 655.96,667 645,677.35 C627.65,693.72 613.2593,708.0547 597.4393,724.2747" fill="none" id="Game-Player" style="stroke:#181818;stroke-width:1;"/><polygon fill="#181818" points="679.18,645.85,672.0461,646.9024,670.2738,653.8923,677.4077,652.8399,679.18,645.85" style="stroke:#181818;stroke-width:1;"/><polygon fill="#181818" points="593.25,728.57,602.3975,724.92,596.7411,724.9906,596.6705,719.3342,593.25,728.57" style="stroke:#181818;stroke-width:1;"/><polygon fill="#000000" points="646.4045,689.3909,654.9511,685.2189,650.8666,680.9921,646.4045,689.3909" style="stroke:#000000;stroke-width:1;"/><text fill="#000000" font-family="sans-serif" font-size="13" lengthAdjust="spacing" textLength="55.3135" x="659" y="690.4169">Contient</text><text fill="#000000" font-family="sans-serif" font-size="13" lengthAdjust="spacing" textLength="24.8066" x="545.1812" y="702.9855">2..5</text><text fill="#000000" font-family="sans-serif" font-size="13" lengthAdjust="spacing" textLength="65.3301" x="529.0519" y="718.1183">-players**</text></g><!--link Game to Group--><g class="link" data-entity-1="ent0010" data-entity-2="ent0009" data-link-type="composition" data-source-line="98" id="lnk28"><path codeLine="98" d="M874.7159,657.2841 C900.6359,693.5641 917.1222,716.6279 934.0822,740.3679" fill="none" id="Game-Group" style="stroke:#181818;stroke-width:1;"/><polygon fill="#181818" points="867.74,647.52,867.9732,654.7273,874.7159,657.2841,874.4826,650.0767,867.74,647.52" style="stroke:#181818;stroke-width:1;"/><polygon fill="#181818" points="937.57,745.25,935.593,735.6016,934.6635,741.1816,929.0835,740.252,937.57,745.25" style="stroke:#181818;stroke-width:1;"/><polygon fill="#000000" points="905.9069,689.9846,903.0395,680.9166,898.2571,684.3338,905.9069,689.9846" style="stroke:#000000;stroke-width:1;"/><text fill="#000000" font-family="sans-serif" font-size="13" lengthAdjust="spacing" textLength="55.3135" x="912" y="690.4169">Contient</text><text fill="#000000" font-family="sans-serif" font-size="13" lengthAdjust="spacing" textLength="8.2393" x="888.3671" y="719.0124">n</text><text fill="#000000" font-family="sans-serif" font-size="13" lengthAdjust="spacing" textLength="62.5054" x="865.3664" y="734.1452">-groups**</text></g><!--link Game to Tile--><g class="link" data-entity-1="ent0010" data-entity-2="ent0008" data-link-type="aggregation" data-source-line="99" id="lnk29"><path codeLine="99" d="M792.7522,659.6092 C791.8822,735.3792 792.59,820.12 800,859.24 C802.32,871.5 804.4325,878.853 808.8725,890.193" fill="none" id="Game-Tile" style="stroke:#181818;stroke-width:1;"/><polygon fill="none" points="792.89,647.61,788.8214,653.5637,792.7522,659.6092,796.8208,653.6555,792.89,647.61" style="stroke:#181818;stroke-width:1;"/><polygon fill="#181818" points="811.06,895.78,811.5034,885.9411,809.2371,891.1241,804.0541,888.8578,811.06,895.78" style="stroke:#181818;stroke-width:1;"/><polygon fill="#000000" points="800.3487,775.6942,802.6497,766.4662,796.7861,766.8761,800.3487,775.6942" style="stroke:#000000;stroke-width:1;"/><text fill="#000000" font-family="sans-serif" font-size="13" lengthAdjust="spacing" textLength="55.3135" x="809" y="775.2069">Contient</text><text fill="#000000" font-family="sans-serif" font-size="13" lengthAdjust="spacing" textLength="8.2393" x="775.8353" y="870.077">n</text><text fill="#000000" font-family="sans-serif" font-size="13" lengthAdjust="spacing" textLength="41.8818" x="763.1464" y="885.2098">map**</text></g><!--link Game to Deck--><g class="link" data-entity-1="ent0010" data-entity-2="ent0020" data-link-type="composition" data-source-line="100" id="lnk30"><path codeLine="100" d="M739.2014,658.272 C721.2214,694.552 710.5252,716.1344 698.7552,739.8744" fill="none" id="Game-Deck" style="stroke:#181818;stroke-width:1;"/><polygon fill="#181818" points="744.53,647.52,738.2817,651.1198,739.2014,658.272,745.4497,654.6722,744.53,647.52" style="stroke:#181818;stroke-width:1;"/><polygon fill="#181818" points="696.09,745.25,703.6715,738.9634,698.311,740.7703,696.504,735.4098,696.09,745.25" style="stroke:#181818;stroke-width:1;"/><polygon fill="#000000" points="731.7795,690.3963,738.4296,683.5972,733.1632,680.9869,731.7795,690.3963" style="stroke:#000000;stroke-width:1;"/><text fill="#000000" font-family="sans-serif" font-size="13" lengthAdjust="spacing" textLength="40.2188" x="743" y="690.4169">Utilise</text><text fill="#000000" font-family="sans-serif" font-size="13" lengthAdjust="spacing" textLength="8.271" x="673.7098" y="719.0124">1</text><text fill="#000000" font-family="sans-serif" font-size="13" lengthAdjust="spacing" textLength="35.6167" x="660.0369" y="734.1452">-deck</text></g><!--link Group to Tile--><g class="link" data-entity-1="ent0009" data-entity-2="ent0008" data-link-type="aggregation" data-source-line="101" id="lnk31"><path codeLine="101" d="M934.3137,806.6622 C923.3037,824.7622 913.5,839.27 897,859.24 C886.57,871.86 878.4241,880.5205 866.8641,891.6405" fill="none" id="Group-Tile" style="stroke:#181818;stroke-width:1;"/><polygon fill="none" points="940.55,796.41,934.0144,799.4574,934.3137,806.6622,940.8493,803.6149,940.55,796.41" style="stroke:#181818;stroke-width:1;"/><polygon fill="#181818" points="862.54,895.8,871.7992,892.4434,866.1434,892.3337,866.2532,886.6779,862.54,895.8" style="stroke:#181818;stroke-width:1;"/><polygon fill="#000000" points="910.8915,854.7227,918.8168,849.4652,914.2129,845.8109,910.8915,854.7227" style="stroke:#000000;stroke-width:1;"/><text fill="#000000" font-family="sans-serif" font-size="13" lengthAdjust="spacing" textLength="55.3135" x="923" y="855.3069">Contient</text><text fill="#000000" font-family="sans-serif" font-size="13" lengthAdjust="spacing" textLength="8.2393" x="834.9714" y="870.1002">n</text><text fill="#000000" font-family="sans-serif" font-size="13" lengthAdjust="spacing" textLength="42.9355" x="821.7556" y="885.233">Tiles**</text></g><!--link Tile to Type--><g class="link" data-entity-1="ent0008" data-entity-2="ent0006" data-link-type="aggregation" data-source-line="103" id="lnk32"><path codeLine="103" d="M852.1631,973.6181 C863.6831,992.5281 869.3485,1001.8459 883.8285,1025.6159" fill="none" id="Tile-Type" style="stroke:#181818;stroke-width:1;"/><polygon fill="none" points="845.92,963.37,845.6255,970.5751,852.1631,973.6181,852.4576,966.413,845.92,963.37" style="stroke:#181818;stroke-width:1;"/><polygon fill="#181818" points="886.95,1030.74,885.6839,1020.9729,884.3488,1026.4699,878.8517,1025.1348,886.95,1030.74" style="stroke:#181818;stroke-width:1;"/><text fill="#000000" font-family="sans-serif" font-size="13" lengthAdjust="spacing" textLength="8.271" x="857.1217" y="1004.8238">1</text><text fill="#000000" font-family="sans-serif" font-size="13" lengthAdjust="spacing" textLength="33.7314" x="848.5238" y="1019.9567">-type</text></g><!--link Tile to Meeple--><g class="link" data-entity-1="ent0008" data-entity-2="ent0004" data-link-type="aggregation" data-source-line="104" id="lnk33"><path codeLine="104" d="M759.8987,960.9479 C703.6687,986.9579 633.97,1020.17 622,1031.1 C600.67,1050.56 587.7747,1075.9156 580.3947,1093.1256" fill="none" id="Tile-Meeple" style="stroke:#181818;stroke-width:1;"/><polygon fill="none" points="770.79,955.91,763.6651,954.7985,759.8987,960.9479,767.0237,962.0594,770.79,955.91" style="stroke:#181818;stroke-width:1;"/><polygon fill="#181818" points="578.03,1098.64,585.2533,1091.9449,580.0006,1094.0447,577.9008,1088.792,578.03,1098.64" style="stroke:#181818;stroke-width:1;"/><text fill="#000000" font-family="sans-serif" font-size="13" lengthAdjust="spacing" textLength="8.271" x="596.7151" y="1068.4167">1</text><text fill="#000000" font-family="sans-serif" font-size="13" lengthAdjust="spacing" textLength="53.2124" x="578.3767" y="1083.5495">-meeple</text></g><!--link Engine to AIEngine--><g class="link" data-entity-1="ent0011" data-entity-2="ent0017" data-link-type="composition" data-source-line="106" id="lnk34"><path codeLine="106" d="M896.9593,375.0839 C951.9193,450.6339 1107.3202,664.2481 1162.4502,740.0281" fill="none" id="Engine-AIEngine" style="stroke:#181818;stroke-width:1;"/><polygon fill="#181818" points="889.9,365.38,890.195,372.5851,896.9593,375.0839,896.6643,367.8789,889.9,365.38" style="stroke:#181818;stroke-width:1;"/><polygon fill="#181818" points="1165.98,744.88,1163.92,735.249,1163.0385,740.8368,1157.4508,739.9553,1165.98,744.88" style="stroke:#181818;stroke-width:1;"/><polygon fill="#000000" points="1100.9414,548.7533,1097.9969,539.71,1093.2438,543.1678,1100.9414,548.7533" style="stroke:#000000;stroke-width:1;"/><text fill="#000000" font-family="sans-serif" font-size="13" lengthAdjust="spacing" textLength="61.4326" x="826.0365" y="385.115">Fait jouer</text></g><!--link Engine to Game--><g class="link" data-entity-1="ent0011" data-entity-2="ent0010" data-link-type="composition" data-source-line="107" id="lnk35"><path codeLine="107" d="M858.4535,376.4797 C851.0935,395.8797 846.6691,407.5505 835.8291,436.1105" fill="none" id="Engine-Game" style="stroke:#181818;stroke-width:1;"/><polygon fill="#181818" points="862.71,365.26,856.8418,369.451,858.4535,376.4797,864.3216,372.2887,862.71,365.26" style="stroke:#181818;stroke-width:1;"/><polygon fill="#181818" points="833.7,441.72,840.6334,434.7251,835.4743,437.0454,833.154,431.8863,833.7,441.72" style="stroke:#181818;stroke-width:1;"/><polygon fill="#000000" points="854.2263,408.3212,860.1827,400.9069,854.6871,398.8218,854.2263,408.3212" style="stroke:#000000;stroke-width:1;"/><text fill="#000000" font-family="sans-serif" font-size="13" lengthAdjust="spacing" textLength="28.0249" x="865" y="408.1469">Joue</text><text fill="#000000" font-family="sans-serif" font-size="13" lengthAdjust="spacing" textLength="8.271" x="806.5902" y="415.8682">1</text><text fill="#000000" font-family="sans-serif" font-size="13" lengthAdjust="spacing" textLength="48.0708" x="786.6903" y="431.001">-game*</text></g><!--link MainSDL to SDLFrontEnd--><g class="link" data-entity-1="ent0022" data-entity-2="ent0013" data-link-type="dependency" data-source-line="109" id="lnk36"><path codeLine="109" d="M1352,33.74 C1352,54.9 1352,92.46 1352,125.04" fill="none" id="MainSDL-to-SDLFrontEnd" style="stroke:#181818;stroke-width:1;stroke-dasharray:7,7;"/><polygon fill="#181818" points="1352,131.04,1356,122.04,1352,126.04,1348,122.04,1352,131.04" style="stroke:#181818;stroke-width:1;"/><text fill="#000000" font-family="sans-serif" font-size="13" lengthAdjust="spacing" textLength="45.6904" x="1353" y="76.3669">&#171;uses&#187;</text></g><!--link SDLFrontEnd to Engine--><g class="link" data-entity-1="ent0013" data-entity-2="ent0011" data-link-type="composition" data-source-line="111" id="lnk37"><path codeLine="111" d="M1221.0708,218.8682 C1130.4108,250.0082 1025.8345,285.9407 949.6245,312.1207" fill="none" id="SDLFrontEnd-Engine" style="stroke:#181818;stroke-width:1;"/><polygon fill="#181818" points="1232.42,214.97,1225.446,213.1361,1221.0708,218.8682,1228.0448,220.7022,1232.42,214.97" style="stroke:#181818;stroke-width:1;"/><polygon fill="#181818" points="943.95,314.07,953.7613,314.929,948.6788,312.4456,951.1622,307.363,943.95,314.07" style="stroke:#181818;stroke-width:1;"/><polygon fill="#000000" points="1126.2713,256.6809,1135.7805,256.5216,1133.8708,250.9627,1126.2713,256.6809" style="stroke:#000000;stroke-width:1;"/><text fill="#000000" font-family="sans-serif" font-size="13" lengthAdjust="spacing" textLength="72.8838" x="1140" y="259.5569">commande</text><text fill="#000000" font-family="sans-serif" font-size="13" lengthAdjust="spacing" textLength="8.271" x="916.7344" y="288.4006">1</text><text fill="#000000" font-family="sans-serif" font-size="13" lengthAdjust="spacing" textLength="55.5293" x="897.2376" y="303.5334">-engine*</text></g><!--link CLIFrontEnd to Engine--><g class="link" data-entity-1="ent0015" data-entity-2="ent0011" data-link-type="composition" data-source-line="112" id="lnk38"><path codeLine="112" d="M567.0536,219.3461 C646.5636,250.4861 736.4633,285.7018 803.3033,311.8818" fill="none" id="CLIFrontEnd-Engine" style="stroke:#181818;stroke-width:1;"/><polygon fill="#181818" points="555.88,214.97,560.0081,220.8826,567.0536,219.3461,562.9255,213.4335,555.88,214.97" style="stroke:#181818;stroke-width:1;"/><polygon fill="#181818" points="808.89,314.07,801.9687,307.0632,804.2344,312.2465,799.0511,314.5122,808.89,314.07" style="stroke:#181818;stroke-width:1;"/><polygon fill="#000000" points="683.6556,256.8799,676.3054,250.8446,674.1617,256.3176,683.6556,256.8799" style="stroke:#000000;stroke-width:1;"/><text fill="#000000" font-family="sans-serif" font-size="13" lengthAdjust="spacing" textLength="72.8838" x="688" y="259.5569">commande</text><text fill="#000000" font-family="sans-serif" font-size="13" lengthAdjust="spacing" textLength="8.271" x="826.1755" y="288.4006">1</text><text fill="#000000" font-family="sans-serif" font-size="13" lengthAdjust="spacing" textLength="55.5293" x="806.6787" y="303.5334">-engine*</text></g><!--link SDLFrontEnd to Action--><g class="link" data-entity-1="ent0013" data-entity-2="ent0012" data-link-type="composition" data-source-line="114" id="lnk39"><path codeLine="114" d="M1353.4621,226.8862 C1354.3021,260.2462 1355,296.55 1355,338.78 C1355,338.78 1355,338.78 1355,930.67 C1355,1045.74 954.2,989.25 847,1031.1 C811.36,1045.01 779.4145,1065.0638 753.9145,1083.0338" fill="none" id="SDLFrontEnd-Action" style="stroke:#181818;stroke-width:1;"/><polygon fill="#181818" points="1353.16,214.89,1349.3123,220.9888,1353.4621,226.8862,1357.3098,220.7874,1353.16,214.89" style="stroke:#181818;stroke-width:1;"/><polygon fill="#181818" points="749.01,1086.49,758.671,1084.5753,753.0971,1083.6098,754.0626,1078.0359,749.01,1086.49" style="stroke:#181818;stroke-width:1;"/><polygon fill="#000000" points="1357.1319,690.012,1364.7277,684.2888,1359.913,680.9172,1357.1319,690.012" style="stroke:#000000;stroke-width:1;"/><text fill="#000000" font-family="sans-serif" font-size="13" lengthAdjust="spacing" textLength="72.8838" x="1369" y="690.4169">commande</text><text fill="#000000" font-family="sans-serif" font-size="13" lengthAdjust="spacing" textLength="8.271" x="716.56" y="1060.8091">1</text><text fill="#000000" font-family="sans-serif" font-size="13" lengthAdjust="spacing" textLength="51.2065" x="699.2246" y="1075.9419">-action*</text></g><!--link CLIFrontEnd to Action--><g class="link" data-entity-1="ent0015" data-entity-2="ent0012" data-link-type="composition" data-source-line="115" id="lnk40"><path codeLine="115" d="M449.0473,226.8732 C447.9273,260.2332 447,296.55 447,338.78 C447,338.78 447,338.78 447,930.67 C447,990.28 564.47,995.14 622,1031.1 C647.47,1047.01 668.8309,1065.3671 686.9209,1082.4771" fill="none" id="CLIFrontEnd-Action" style="stroke:#181818;stroke-width:1;"/><polygon fill="#181818" points="449.45,214.88,445.2509,220.7424,449.0473,226.8732,453.2464,221.0108,449.45,214.88" style="stroke:#181818;stroke-width:1;"/><polygon fill="#181818" points="691.28,1086.6,687.49,1077.5096,687.6474,1083.1642,681.9928,1083.3217,691.28,1086.6" style="stroke:#181818;stroke-width:1;"/><polygon fill="#000000" points="453.3393,690.7337,453.748,681.2319,448.085,682.8064,453.3393,690.7337" style="stroke:#000000;stroke-width:1;"/><text fill="#000000" font-family="sans-serif" font-size="13" lengthAdjust="spacing" textLength="72.8838" x="461" y="690.4169">commande</text><text fill="#000000" font-family="sans-serif" font-size="13" lengthAdjust="spacing" textLength="8.271" x="647.4999" y="1060.6868">1</text><text fill="#000000" font-family="sans-serif" font-size="13" lengthAdjust="spacing" textLength="51.2065" x="630.1644" y="1075.8196">-action*</text></g><!--link MainCLI to CLIFrontEnd--><g class="link" data-entity-1="ent0021" data-entity-2="ent0015" data-link-type="dependency" data-source-line="118" id="lnk41"><path codeLine="118" d="M451,33.74 C451,54.9 451,92.46 451,125.04" fill="none" id="MainCLI-to-CLIFrontEnd" style="stroke:#181818;stroke-width:1;stroke-dasharray:7,7;"/><polygon fill="#181818" points="451,131.04,455,122.04,451,126.04,447,122.04,451,131.04" style="stroke:#181818;stroke-width:1;"/><text fill="#000000" font-family="sans-serif" font-size="13" lengthAdjust="spacing" textLength="51.6699" x="452" y="76.3669">"&#171;uses&#187;</text></g><!--link Player to AIState--><g class="link" data-entity-1="ent0005" data-entity-2="ent0019" data-link-type="composition" data-source-line="120" id="lnk42"><path codeLine="120" d="M618.9799,817.9667 C624.3999,820.9167 619.43,817.82 625,819.94 C695.79,846.93 721.14,821.46 794,842.24 C800.1,843.98 892.39,886.28 898,889.24 C913.76,897.54 925.912,904.8383 938.662,912.9183" fill="none" id="Player-AIState" style="stroke:#181818;stroke-width:1;"/><polygon fill="#181818" points="608.44,812.23,611.7977,818.6117,618.9799,817.9667,615.6222,811.585,608.44,812.23" style="stroke:#181818;stroke-width:1;"/><polygon fill="#181818" points="943.73,916.13,938.2691,907.9337,939.5067,913.4536,933.9868,914.6911,943.73,916.13" style="stroke:#181818;stroke-width:1;"/><polygon fill="#000000" points="840.793,852.23,832.9591,846.8374,831.2856,852.472,840.793,852.23" style="stroke:#000000;stroke-width:1;"/><text fill="#000000" font-family="sans-serif" font-size="13" lengthAdjust="spacing" textLength="40.2188" x="845" y="855.3069">Utilise</text></g><!--link AIEngine to AIState--><g class="link" data-entity-1="ent0017" data-entity-2="ent0019" data-link-type="aggregation" data-source-line="121" id="lnk43"><path codeLine="121" d="M1139.6874,803.1299 C1091.8574,837.1099 1021.8913,886.825 985.4213,912.735" fill="none" id="AIEngine-AIState" style="stroke:#181818;stroke-width:1;"/><polygon fill="none" points="1149.47,796.18,1142.2621,796.3941,1139.6874,803.1299,1146.8953,802.9158,1149.47,796.18" style="stroke:#181818;stroke-width:1;"/><polygon fill="#181818" points="980.53,916.21,990.1836,914.2584,984.6061,913.3142,985.5502,907.7367,980.53,916.21" style="stroke:#181818;stroke-width:1;"/><polygon fill="#000000" points="1080.924,853.7024,1089.9997,850.8593,1086.5953,846.0677,1080.924,853.7024" style="stroke:#000000;stroke-width:1;"/><text fill="#000000" font-family="sans-serif" font-size="13" lengthAdjust="spacing" textLength="40.2188" x="1094" y="855.3069">Utilise</text></g><!--link Action to Vector2D--><g class="link" data-entity-1="ent0012" data-entity-2="ent0002" data-link-type="composition" data-source-line="123" id="lnk44"><path codeLine="123" d="M716,1149.92 C716,1182.85 716,1223.32 716,1259.99" fill="none" id="Action-Vector2D" style="stroke:#181818;stroke-width:1;"/><polygon fill="#181818" points="716,1137.92,712,1143.92,716,1149.92,720,1143.92,716,1137.92" style="stroke:#181818;stroke-width:1;"/><polygon fill="#181818" points="716,1265.99,720,1256.99,716,1260.99,712,1256.99,716,1265.99" style="stroke:#181818;stroke-width:1;"/><polygon fill="#000000" points="721,1234.94,723.9389,1225.8949,718.0611,1225.8949,721,1234.94" style="stroke:#000000;stroke-width:1;"/><text fill="#000000" font-family="sans-serif" font-size="13" lengthAdjust="spacing" textLength="8.271" x="744.4327" y="1240.2854">1</text><text fill="#000000" font-family="sans-serif" font-size="13" lengthAdjust="spacing" textLength="56.1831" x="720.4766" y="1255.4182">-position</text></g><!--link Deck to Tile--><g class="link" data-entity-1="ent0020" data-entity-2="ent0008" data-link-type="composition" data-source-line="125" id="lnk45"><path codeLine="125" d="M702.6699,806.6275 C712.9599,825.0575 722.66,839.87 740,859.24 C751.78,872.39 761.4914,881.3186 775.1414,892.1586" fill="none" id="Deck-Tile" style="stroke:#181818;stroke-width:1;"/><polygon fill="#181818" points="696.82,796.15,696.2524,803.3387,702.6699,806.6275,703.2375,799.4388,696.82,796.15" style="stroke:#181818;stroke-width:1;"/><polygon fill="#181818" points="779.84,895.89,775.2796,887.1606,775.9245,892.7805,770.3045,893.4254,779.84,895.89" style="stroke:#181818;stroke-width:1;"/><polygon fill="#000000" points="748.2323,854.6212,744.6273,845.8203,740.1428,849.6201,748.2323,854.6212" style="stroke:#000000;stroke-width:1;"/><text fill="#000000" font-family="sans-serif" font-size="13" lengthAdjust="spacing" textLength="31.4146" x="754" y="855.3069">G&#232;re</text><text fill="#000000" font-family="sans-serif" font-size="13" lengthAdjust="spacing" textLength="8.271" x="743.3633" y="902.7137">1</text><text fill="#000000" font-family="sans-serif" font-size="13" lengthAdjust="spacing" textLength="31.7827" x="731.6075" y="917.8465">-tiles</text></g><?plantuml-src tLRTRjem5BxFKrYvegn4QwL94qAHqW9j9cYhGLjDgXIvZaMz9dOKErCPsllqFVfYExRp1uIkr-E2EEVdEpxV-G7vp7Y6SvmYgTO9XU-S4LMaYIDh3Kcmb842pMEXQ4W4Nx3V57tUDPaAhXO6vKmaiVF4OefecgarIcdwI7FfECOE4PmJU0hEgNT7YHBvwHXj70IV0Nf1GyIuAj_MvTkVBjyvfHb4spZTwfi4hsbU0xDu2vdZb8A0FE6yNuea4Jbj0b9Uf5k0otL6qMYavRvlOU_2sIouc9Zpylh-gZxSXylBnMKucOsDA3Wxc_mmf-_NWHLDQ-LzC9jr1hGPT8GD0_Eul9q7Lzt9BvbXnYQcD48x-LKkYYog6Ub4kD0sDSI7F3IbbGCfyfno5MKcXsY7_HI_HAh8kToI6ab4HC7LblofI36laFRLIYYS75QdEBFlVLleJo1vfYPyxwYKW3C14P2s8qfDZzN25LNHTcQz8m2tXUftqpBXAyRffaJ0MPQi8qmK4xnd7m0GcCDHDu1LbioshmMEZq8aZTUgODvYF9lcC8eJ7fSk9ATOqMW5vUdj47-yp_anafJ6rVaGzSS7MTTyw4wmP4k5SsL3h-p46Pqs-YLOR6nY2cj7hD-nQcX9c7S-2__V137pWj1s3DgqsdLC2PEwPRRS3_HBk5301zfqQW7fkPxIXea6QeuP1uwrUoE0hZ9uPg-8mS17xWbwu6YG2SbqUxgeMkLEkPV_OUMK-xcoC6ykUCNQxQiHsZQN_RwBvbN7tmWftrxXjyMl42eV2wINdOjQgtE89bAXWeE3OrPKtrpirFE-j2AR82NW49r3Vp4OSl1fkN1ZRrQXCRShSjzQDDQmVBIbeUqGxCa37yHG5HUPsWpHBImY9dM6Da8BJmF9RiJzsbWgD0dxEajjnQlZb3rdRbHtu12vKymK-YaANHj_oyhSMxUZPi9svJUmqpUfEiRpVDJUHnfmD2eabRxlEavRrM_TZPee05jVWuWKnjGKlJt-7tOw6CfkOF0AgbNyWL3lEjdizG3fxDiGxUphzYy9jnFRBdrT1778mYd3DzNO7pDm04FJLusP_fsJTGjTlBt2tnx_Bm00?></g></svg>