<?xml version='1.0' encoding='utf-8'?>
<svg xmlns="http://www.w3.org/2000/svg" xmlns:xlink="http://www.w3.org/1999/xlink" viewBox="-30 -30 60 60" width="512" height="512">
  <style type="text/css">
.count  { text-anchor:end;  stroke:none; fill:#000000; }
.header { font-weight:bold; stroke:none; fill:#000000; }
.base { stroke-width:0;  stroke:#000000; fill:#66cc00; }
.town {                                  fill:#cccc00; }
.cloi {                                  fill:#cc3300; }
.penn { stroke-width:0;  stroke:#ffffff; fill:#6600ff; }
.city {                                  fill:#996600; }
.road { stroke-width:10; stroke:#ffffff; fill:#66cc00  }
.rive { stroke-width:10; stroke:#0000ff; fill:#66cc00  }
.rule {                  stroke:#666666;               }
 
.base { stroke-width: 0 !important; }</style>
  <defs>
    <rect id="square" x="-30" y="-30" width="60" height="60"/>
    <use id="base" xlink:href="#square" class="base"/>
    <circle id="town" cx="0" cy="0" r="10" class="town"/>
    <path id="cloi" d="M 0,-10 L 10,0 V 10 H -10 V 0 Z" class="cloi"/>
    <path id="penn" d="M -10,-10 A 20,20 0 0 0 0,10 A 20,20 0 0 0 10,-10 Z" class="penn"/>
    <use id="city_4" xlink:href="#square" class="city"/>
    <path id="city_1" d="M -30,-30 A 42,42 0 0 0 30,-30 Z" class="city"/>
    <path id="city_2a" d="M -30,-30 A 85,85 0 0 1 30,30 V -30 Z" class="city"/>
    <path id="city_2b" d="M -30,-30 A 42,42 0 0 0 30,-30 V 30 A 42,42 0 0 0 -30,30 Z" class="city"/>
    <path id="city_3" d="M -30,-30 H 30 V 30 A 42,42 0 0 0 -30,30 Z" class="city"/>
    <path id="road_1" d="M 0,0 V 30" class="road"/>
    <path id="road_2a" d="M -30,0 H 30" class="road"/>
    <path id="road_2b" d="M 0,-30 A 30,30 0 0 0 30,0" class="road"/>
    <path id="rive_1" d="M 1,5 A 5,5 0 1 0 0,5 V 30" class="rive"/>
    <path id="rive_2a" d="M -30,0 C -20,0 -20,-10 0,0 S 20,0 30,0" class="rive"/>
    <path id="rive_2b" d="M 0,30 A 30,30 0 0 0 -30,0" class="rive"/>
    <path id="rive_2c" d="M -30,0 C -20,0 -20,10 0,10 S 20,0 30,0" class="rive"/>
    <path id="rule_ha" d="M -75,-40 H 620" class="rule"/>
    <path id="rule_hb" d="M -75,-40 H 230" class="rule"/>
    <path id="rule_v" d="M -60,-50 V 710" class="rule"/>
    <g id="tile_a">
      <use xlink:href="#base"/>
      <use xlink:href="#city_2a"/>
    </g>
    <g id="tile_c">
      <use xlink:href="#base"/>
      <use xlink:href="#city_1"/>
      <use xlink:href="#city_1" transform="rotate(180)"/>
    </g>
    <g id="tile_i">
      <use xlink:href="#base"/>
      <use xlink:href="#road_1"/>
      <use xlink:href="#road_2a"/>
      <use xlink:href="#town"/>
    </g>
    <g id="tile_k">
      <use xlink:href="#base"/>
      <use xlink:href="#city_3"/>
    </g>
    <g id="tile_l">
      <use xlink:href="#base"/>
      <use xlink:href="#road_1"/>
      <use xlink:href="#city_3"/>
    </g>
    <g id="tile_r">
      <use xlink:href="#base"/>
      <use xlink:href="#city_2b"/>
    </g>
    <g id="tile_w">
      <use xlink:href="#base"/>
      <use xlink:href="#rive_2a"/>
      <use xlink:href="#road_2a" transform="rotate(90)"/>
    </g>
  </defs>
  <g transform="translate(0,0)">
    <use xlink:href="#base"/>
    <use xlink:href="#rive_2b"/>
    <use xlink:href="#road_2b"/>
  </g>
</svg>
